<svg xmlns="http://www.w3.org/2000/svg" style="display: none;"><symbol id="laptop" viewBox="0 0 204.232 204.232"><title>laptop</title><path d="M4.595,181.71h195.021c2.538,0,4.595-2.057,4.595-4.595v-4.136c0.003-0.069,0.021-0.133,0.021-0.203 c0-0.75-0.18-1.458-0.499-2.083l-19.942-50.2V27.116c0-2.538-2.057-4.595-4.595-4.595H25.016c-2.538,0-4.595,2.057-4.595,4.595 v93.377L0.324,171.08c-0.09,0.226-0.153,0.457-0.206,0.69c-0.013,0.059-0.023,0.118-0.034,0.178c-0.05,0.268-0.081,0.539-0.082,0.81 c0,0.006-0.002,0.012-0.002,0.018v4.339C0,179.653,2.057,181.71,4.595,181.71z M82.343,166.881l4.204-13h31.117l4.204,13H82.343z M33.93,34.244h136.352v80H33.93V34.244z"/></symbol><symbol id="quote" viewBox="0 0 191.029 191.029"><title>quote</title><path style="fill:#fff;" d="M44.33,88.474v15.377h38.417v82.745H0v-82.745h0.002V88.474c0-31.225,8.984-54.411,26.704-68.918 C38.964,9.521,54.48,4.433,72.824,4.433v44.326C62.866,48.759,44.33,48.759,44.33,88.474z M181.107,48.759V4.433 c-18.343,0-33.859,5.088-46.117,15.123c-17.72,14.507-26.705,37.694-26.705,68.918v15.377h0v82.745h82.744v-82.745h-38.417V88.474 C152.613,48.759,171.149,48.759,181.107,48.759z"/></symbol><symbol id="right-arrow" viewBox="0 0 512 512"><title>right-arrow</title><path d="M506.134,241.843c-0.006-0.006-0.011-0.013-0.018-0.019l-104.504-104c-7.829-7.791-20.492-7.762-28.285,0.068 c-7.792,7.829-7.762,20.492,0.067,28.284L443.558,236H20c-11.046,0-20,8.954-20,20c0,11.046,8.954,20,20,20h423.557 l-70.162,69.824c-7.829,7.792-7.859,20.455-0.067,28.284c7.793,7.831,20.457,7.858,28.285,0.068l104.504-104 c0.006-0.006,0.011-0.013,0.018-0.019C513.968,262.339,513.943,249.635,506.134,241.843z"/></symbol><symbol id="trend" viewBox="0 0 512 512"><title>trend</title><path d="m512 482h-30v-302h-91v302h-30v-182h-90v182h-30v-242h-90v242h-30v-152h-91v152h-30v30h512z"/><path d="m512 120v-120h-121v30h69.789l-144.789 143.789-120-120-191.605 190.606 21.21 21.21 170.395-169.394 120 120 166-165v68.789z"/></symbol><symbol id="menu" viewBox="0 0 341.333 341.333"><title>menu</title><g> <g> <rect  y="277.333" width="341.333" height="42.667"/> </g> </g><g> <g> <rect y="149.333" width="341.333" height="42.667"/> </g> </g><g> <g> <rect y="21.333" width="341.333" height="42.667"/> </g> </g></symbol><symbol id="wall-clock" viewBox="0 0 400 400"><title>wall-clock</title><path d="M341.424,58.579C303.649,20.804,253.419,0,200,0S96.351,20.804,58.576,58.579C20.801,96.354,0,146.577,0,200 s20.801,103.646,58.576,141.421C96.351,379.196,146.581,400,200,400s103.649-20.804,141.424-58.579 C379.199,303.646,400,253.423,400,200S379.199,96.354,341.424,58.579z M200,366.38c-91.74,0-166.384-74.637-166.384-166.38 S108.26,33.62,200,33.62S366.384,108.257,366.384,200S291.74,366.38,200,366.38z"/><path d="M138.802,306.204c-6.447-3.72-14.698-1.517-18.431,4.931c-3.719,6.455-1.506,14.707,4.941,18.428 c2.122,1.229,4.446,1.814,6.736,1.814c4.658,0,9.188-2.419,11.69-6.744C147.461,318.176,145.255,309.926,138.802,306.204z"/><path d="M131.806,95.758c2.298,0,4.632-0.586,6.764-1.822c6.437-3.74,8.633-12,4.891-18.438 c-3.749-6.446-11.998-8.633-18.438-4.894c-6.446,3.74-8.632,11.991-4.891,18.437C122.635,93.35,127.154,95.758,131.806,95.758z"/><path d="M75.34,143.814c2.121,1.217,4.438,1.804,6.726,1.804c4.661,0,9.201-2.418,11.694-6.753 c3.721-6.446,1.506-14.697-4.941-18.418c-6.455-3.73-14.705-1.516-18.427,4.938C66.67,131.842,68.886,140.084,75.34,143.814z"/><path d="M199.769,77.451c0.01,0,0.01,0,0.017,0c7.452-0.019,13.479-6.065,13.473-13.516c-0.021-7.452-6.064-13.479-13.517-13.461 c-7.453,0.009-13.479,6.056-13.462,13.506C186.289,71.423,192.325,77.451,199.769,77.451z"/><path d="M75.461,256.475c-6.447,3.73-8.643,11.98-4.901,18.429c2.503,4.314,7.033,6.726,11.685,6.726 c2.297,0,4.621-0.586,6.753-1.823c6.446-3.729,8.64-11.991,4.9-18.429C90.159,254.932,81.907,252.734,75.461,256.475z"/><path d="M77.451,200.141c-0.01-7.453-6.056-13.479-13.506-13.471c-7.451,0.009-13.479,6.055-13.47,13.497 c0.01,7.452,6.046,13.479,13.489,13.479h0.007C71.425,213.637,77.461,207.59,77.451,200.141z"/><path d="M200.064,322.549c-7.44,0.01-13.479,6.047-13.479,13.497c0.01,7.452,6.049,13.489,13.499,13.479 c7.45,0,13.489-6.047,13.479-13.498C213.564,328.585,207.52,322.549,200.064,322.549z"/><path d="M324.595,256.335c-6.444-3.729-14.693-1.526-18.427,4.921c-3.729,6.446-1.525,14.697,4.921,18.428 c2.132,1.229,4.456,1.813,6.743,1.813c4.661,0,9.191-2.408,11.684-6.735C333.248,268.316,331.042,260.064,324.595,256.335z"/><path d="M336.01,186.195c-7.45,0.019-13.479,6.075-13.459,13.525c0,0.075,0,0.15,0,0.214c0,0.029,0,0.047,0,0.066 c0,7.451,6.035,13.488,13.486,13.488c7.453,0,13.489-6.037,13.489-13.488c0-0.047,0-0.103,0-0.158c0-0.056,0-0.122,0-0.186 C349.509,192.205,343.46,186.186,336.01,186.195z"/><path d="M261.071,93.721c2.119,1.228,4.437,1.804,6.724,1.804c4.661,0,9.201-2.418,11.694-6.753 c3.722-6.457,1.507-14.707-4.948-18.428c-6.457-3.712-14.709-1.498-18.42,4.959C252.402,81.758,254.615,90.01,261.071,93.721z"/><path d="M261.312,306.141c-6.446,3.729-8.649,11.979-4.91,18.427c2.502,4.315,7.03,6.734,11.684,6.734 c2.298,0,4.614-0.586,6.743-1.82c6.447-3.73,8.643-11.982,4.914-18.431C276.01,304.604,267.758,302.4,261.312,306.141z"/><path d="M317.703,145.219c2.308,0,4.632-0.596,6.771-1.833c6.439-3.749,8.626-12,4.877-18.437 c-3.74-6.447-12.001-8.624-18.438-4.884c-6.439,3.739-8.625,11.999-4.884,18.437 C308.532,142.809,313.052,145.219,317.703,145.219z"/><path d="M284.759,209.456l-70.832-4.831l-7.07-103.744c-0.244-3.569-3.212-6.34-6.791-6.34c-3.578,0-6.542,2.771-6.788,6.34 l-6.945,101.862l-11.337-0.773c-1.512-0.104-2.999,0.425-4.106,1.46c-1.105,1.034-1.734,2.482-1.734,3.998v14.972 c0,1.517,0.629,2.963,1.734,3.997c1.016,0.949,2.353,1.474,3.735,1.474c0.122,0,0.246-0.004,0.371-0.012l9.67-0.66l-0.698,10.209 c-0.126,1.881,0.531,3.729,1.817,5.105c1.286,1.378,3.087,2.16,4.973,2.16h18.618c0.008,0,0.017,0,0.021,0 c3.756,0,6.802-3.046,6.802-6.804c0-0.331-0.871-12.765-0.871-12.765l69.434-4.734c2.871-0.196,5.101-2.581,5.101-5.458 C289.857,212.037,287.63,209.652,284.759,209.456z"/></symbol><symbol id="wordpress" viewBox="0 0 24 24"><title>wordpress</title><path d="m12 0c-6.615 0-12 5.381-12 12 0 6.615 5.385 12 12 12s12-5.385 12-12c0-6.62-5.385-12-12-12zm-10.79 11.999c0-1.563.333-3.048.934-4.389l5.148 14.1c-3.601-1.751-6.082-5.442-6.082-9.711zm10.79 10.791c-1.06 0-2.081-.155-3.048-.441l3.237-9.406 3.315 9.087c.024.054.049.101.077.15-1.118.392-2.323.61-3.581.61zm1.485-15.845v-.001c.648-.034 1.233-.101 1.233-.101.581-.068.513-.924-.068-.891 0 0-1.747.135-2.874.135-1.06 0-2.841-.135-2.841-.135-.58-.034-.647.857-.067.891 0 0 .551.068 1.132.101l1.679 4.606-2.361 7.079-3.928-11.685c.649-.034 1.234-.101 1.234-.101.581-.068.513-.924-.068-.891 0 0-1.747.135-2.874.135-.203 0-.441-.005-.697-.014 1.931-2.928 5.245-4.863 9.015-4.863 2.807 0 5.366 1.075 7.287 2.83-.049-.005-.092-.009-.14-.009-1.06 0-1.81.924-1.81 1.916 0 .89.513 1.64 1.06 2.531.411.716.891 1.64.891 2.976 0 .924-.353 1.993-.823 3.489l-1.075 3.595zm7.985-.122c.842 1.539 1.321 3.3 1.321 5.178 0 3.982-2.158 7.456-5.366 9.324l-.001-.001 3.295-9.528c.614-1.539.823-2.767.823-3.866 0-.396-.024-.764-.072-1.107z"/></symbol><symbol id="search" viewBox="0 0 512 512"><title>magnifying-glass</title><path d="M495,466.2L377.2,348.4c29.2-35.6,46.8-81.2,46.8-130.9C424,103.5,331.5,11,217.5,11C103.4,11,11,103.5,11,217.5 S103.4,424,217.5,424c49.7,0,95.2-17.5,130.8-46.7L466.1,495c8,8,20.9,8,28.9,0C503,487.1,503,474.1,495,466.2z M217.5,382.9 C126.2,382.9,52,308.7,52,217.5S126.2,52,217.5,52C308.7,52,383,126.3,383,217.5S308.7,382.9,217.5,382.9z"/></symbol><symbol id="settings" viewBox="0 0 512 512"><title>settings</title><g> <g> <path d="M256,181c-41.353,0-75,33.647-75,75c0,41.353,33.647,75,75,75c41.353,0,75-33.647,75-75C331,214.647,297.353,181,256,181z "/> </g> </g><g> <g> <path d="M512,298.305v-84.609l-69.408-13.667c-3.794-12.612-8.833-24.771-15.103-36.343l38.73-58.096l-59.81-59.81l-58.096,38.73 c-11.572-6.27-23.73-11.309-36.343-15.103L298.305,0h-84.609l-13.667,69.408c-12.612,3.794-24.771,8.833-36.343,15.103 L105.59,45.78l-59.81,59.81l38.73,58.096c-6.27,11.572-11.309,23.73-15.103,36.343L0,213.695v84.609l69.408,13.667 c3.794,12.612,8.833,24.771,15.103,36.343L45.78,406.41l59.81,59.81l58.096-38.73c11.572,6.27,23.73,11.309,36.343,15.103 L213.695,512h84.609l13.667-69.408c12.612-3.794,24.771-8.833,36.343-15.103l58.096,38.73l59.81-59.81l-38.73-58.096 c6.27-11.572,11.309-23.73,15.103-36.343L512,298.305z M256,361c-57.891,0-105-47.109-105-105s47.109-105,105-105 s105,47.109,105,105S313.891,361,256,361z"/> </g> </g></symbol><symbol id="insert-picture-icon" viewBox="0 0 298.73 298.73"><title>insert-picture-icon</title><path style="fill:#010002;" d="M264.959,9.35H33.787C15.153,9.35,0,24.498,0,43.154v212.461c0,18.634,15.153,33.766,33.787,33.766 h231.171c18.634,0,33.771-15.132,33.771-33.766V43.154C298.73,24.498,283.593,9.35,264.959,9.35z M193.174,59.623 c18.02,0,32.634,14.615,32.634,32.634s-14.615,32.634-32.634,32.634c-18.025,0-32.634-14.615-32.634-32.634 S175.149,59.623,193.174,59.623z M254.363,258.149H149.362H49.039c-9.013,0-13.027-6.521-8.964-14.566l56.006-110.93 c4.058-8.044,11.792-8.762,17.269-1.605l56.316,73.596c5.477,7.158,15.05,7.767,21.386,1.354l13.777-13.951 c6.331-6.413,15.659-5.619,20.826,1.762l35.675,50.959C266.487,252.16,263.376,258.149,254.363,258.149z"/></symbol>
<symbol id="line" viewBox="0 0 150 550">
<title>the-line</title><path style="fill:#00ffff;" d="M492.533,187.733H17.067C7.641,187.733,0,195.374,0,204.8s7.641,17.067,17.067,17.067h375.467c9.426,0,17.067-7.641,17.067-17.067S401.959,187.733,392.533,187.733z"/>
</symbol><symbol id="chevron" viewBox="0 0 407.437 407.437"><title>The Chevron</title><polygon style="fill:#dfeaea;" points="386.258,91.567 203.718,273.512 21.179,91.567 0,112.815 203.718,315.87 407.437,112.815 "/></symbol>
</svg>